{"asset":{"version":"2.0","generator":"THREE.GLTFExporter"},"scenes":[{"nodes":[0],"name":"AuxScene"}],"scene":0,"nodes":[{"mesh":0}],"bufferViews":[{"buffer":0,"byteOffset":0,"byteLength":89280,"target":34962,"byteStride":12},{"buffer":0,"byteOffset":89280,"byteLength":89280,"target":34962,"byteStride":12}],"buffers":[{"byteLength":178560,"uri":"data:application/octet-stream;base64,"}],"accessors":[{"bufferView":0,"componentType":5126,"count":7440,"max":[100.61190795898438,26.595970153808594,100.81192016601562],"min":[-100.78809356689453,0.19596900045871735,-100.78809356689453],"type":"VEC3"},{"bufferView":1,"componentType":5126,"count":7440,"max":[0.983176052570343,1,0.9370954036712646],"min":[-0.9959792494773865,0.057474102824926376,-0.9960799813270569],"type":"VEC3"}],"materials":[{"pbrMetallicRoughness":{"baseColorFactor":[0.5019607843137255,0.5019607843137255,0.5019607843137255,1],"metallicFactor":0,"roughnessFactor":1}}],"meshes":[{"primitives":[{"mode":4,"attributes":{"POSITION":0,"NORMAL":1},"material":0}]}]}